<svg id="logo" xmlns="http://www.w3.org/2000/svg" viewBox="0 0 81.06 88.35">
  <defs>
    <style>
      .cls-1 {
        fill: #fff;
      }

      .cls-2 {
        fill: #ffc200;
        stroke: #000;
        stroke-miterlimit: 10;
      }

      .cls-3 {
        fill: #9dbfa1;
      }
    </style>
  </defs>
  <g>
    <path d="M67.42,61.36s-15.66-1.8-17.1-21.6V31.3s1-4.2-4.26-5-6.24.6-6.24.6-1.44,1.63-1.68-.87S33,21.82,33,21.82s-3.12-1-6.12-2-7.2-.84-7.92,0-1.2,6.36-1,7.68-3.36,5-2.16,10.92c0,0-4.92,6,.84,13.68L22,60l.51.6s-3.87-.18-3,2,8.64,10.35,11,11.43l1.08.45-1.89,1.8s1.26,1.62,6.75,2.34A11.34,11.34,0,0,1,44,82.42c.27.09,10.53,5.4,27.45,0S80.29,58.66,67.42,61.36Z"/>
    <path class="cls-1" d="M18.16,50s1.38,6.31,8.13,12.3c0,0-4.65-.68-3.92.85s4,6.48,12.56,11.39c0,0-3.69.85-2.43,1.53s5.31,1.48,7.87,2a8.34,8.34,0,0,1,4.32,2.84A19.33,19.33,0,0,0,52,83.05S66.76,83,71.74,80.2s6.72-4.62,6.24-8.82-2.46-8.22-10.86-8-14.7-9.78-14.7-9.78l-2.34-4.38-2-6.12s-3.9-8.69-7-6.56c-1.56,1.09-6.1,5.55-4.78,10.11,0,0-3.54-.55-6.81,3.77S19,49.18,19,49.18,18.49,48.55,18.16,50Z"/>
    <g>
      <path class="cls-2" d="M42.91,7.43,9,81.47s-1.52,3.1-.75,4.82a3,3,0,0,0,2.85,1.55s1.67.16,3.45-4.09S45.34,8.4,45.34,8.4a7,7,0,0,0,3-4.95C48.53.32,46.9.5,46.9.5a3.09,3.09,0,0,0-2.47,1.55A7.72,7.72,0,0,0,42.91,7.43Z"/>
      <path class="cls-2" d="M57,9.53,2.66,70.18S.29,72.69.51,74.57a3,3,0,0,0,2.26,2.32s1.55.64,4.52-2.88S59,11.18,59,11.18a7,7,0,0,0,4.33-3.83c1.11-2.93-.5-3.25-.5-3.25A3.12,3.12,0,0,0,60,4.85,7.67,7.67,0,0,0,57,9.53Z"/>
    </g>
    <path class="cls-1" d="M19,29.8a13.52,13.52,0,0,0-2.16,7.86s5.64-.6,7.92.48,6.54,1.74,8,0,2.65-4.26.42-6.18c0,0-3-.3-5.94-.9S22.66,28.9,19,29.8Z"/>
    <path class="cls-1" d="M19,27.82s5.22-.06,6.9,1,7.8,2.1,9.3.48,2.1-4.8-1.62-5.82-5.64-2.16-8.16-2.7-5.22-.3-5.64.66S19,27.82,19,27.82Z"/>
    <path class="cls-1" d="M17.62,49.18s-.6-2.52,6.9-2.28,4.62-6.18,3.84-6.24-5.16-.36-6.42-1.08-4.51-.42-5.14.36S13.06,45.52,17.62,49.18Z"/>
    <path class="cls-1" d="M48.64,40.36s.84-10,0-10.84-1-2.3-3.54-2.36-5.28.18-6.3,2,.12,4.67.9,4.61,5.46.67,6.48-.35l.66-.54S47.74,38.92,48.64,40.36Z"/>
    <path class="cls-3" d="M26.08,65.72c2.3,1.53,4.59,3.09,6.91,4.6a24.06,24.06,0,0,0,6.93,3.32,1.13,1.13,0,0,0,.6-2.17,22.67,22.67,0,0,1-6.59-3.22c-2.25-1.47-4.48-3-6.71-4.47C26,63,24.88,64.92,26.08,65.72Z"/>
    <path class="cls-3" d="M72.78,74.46c-6,2.44-12.19,5-18.77,5a19.17,19.17,0,0,1-8.86-2c-2.51-1.31-4.84-3.22-7.83-3-1.44.1-1.45,2.35,0,2.25,3-.22,5.62,2.33,8.3,3.45a22.53,22.53,0,0,0,8.82,1.59c6.64-.07,12.88-2.57,18.94-5,1.32-.54.74-2.72-.6-2.17Z"/>
    <path class="cls-3" d="M41.86,73.28A35.46,35.46,0,0,0,37,71.56a1.13,1.13,0,0,0-.87,2l3,2c.9.62,2.18-.63,1.53-1.54a6.45,6.45,0,0,0-3.2-2.24,24.29,24.29,0,0,1-3.66-1.6A17.1,17.1,0,0,1,28,64.83c-.79-1.21-2.73-.08-1.94,1.14a19.67,19.67,0,0,0,5.81,5.79,19.43,19.43,0,0,0,3.65,1.82c1.07.4,2.48.69,3.17,1.68l1.54-1.54-3-2-.87,2.06a32.48,32.48,0,0,1,4.36,1.49,1.17,1.17,0,0,0,1.54-.4,1.14,1.14,0,0,0-.41-1.54Z"/>
    <path class="cls-3" d="M39,73l8.95,4.5.57-2.1a9.3,9.3,0,0,1-6.41-2.08L41,75.17,51.24,79l.3-2.21-5.22-.62c-1.11-.13-1.54,1.62-.57,2.09a19,19,0,0,0,10.88,1.83c1.39-.19,1.48-2.36,0-2.25a8.48,8.48,0,0,1-6.14-1.9l-1.36,1.77a26.46,26.46,0,0,0,23.76-1.54,1.13,1.13,0,0,0-1.14-1.94,24.1,24.1,0,0,1-21.49,1.54c-1-.45-2.44.87-1.36,1.77a10.78,10.78,0,0,0,7.73,2.55V77.82a17,17,0,0,1-9.75-1.52l-.56,2.1,5.22.62c1.34.16,1.4-1.8.3-2.21L41.6,73a1.13,1.13,0,0,0-1.09,1.88,11.61,11.61,0,0,0,8,2.74c1,0,1.62-1.57.56-2.09l-9-4.5C38.83,70.38,37.69,72.32,39,73Z"/>
    <path class="cls-3" d="M17.33,47.82S18,45.44,24.76,46c0,0,2.15.31,2.92-.77s1-1.21.95-1.75-1.8.71-1.8.71a16.43,16.43,0,0,1-5.22.28C19.54,44,15.85,45.62,17.33,47.82Z"/>
    <path class="cls-3" d="M17.17,36.8s2-1.2,9.57,1.3c0,0,2.42,1.19,3.73.25s1.63-1,1.78-1.65-2.39.13-2.39.13a21,21,0,0,1-6.27-1.7C21.3,33.87,16.24,33.69,17.17,36.8Z"/>
    <path class="cls-3" d="M19.58,27.15l.23-3.49s0,.18,1.53.72,4,.85,5.17,1.53a6.88,6.88,0,0,0,3.74,1.24c1.75.06,2.52,1.1,3.87.38s1.53-1,1.53-1a2.94,2.94,0,0,1-.45,2.12,4.67,4.67,0,0,1-3.56,1.17A13.36,13.36,0,0,1,27,28.34a11.85,11.85,0,0,0-5.31-1.19A5.16,5.16,0,0,1,19.58,27.15Z"/>
    <path class="cls-3" d="M39.49,31a7,7,0,0,1,6.6-2l1.37.52s-.65-2.2-4.91-1.66S39.49,31,39.49,31Z"/>
  </g>
</svg>
